<mxfile host="app.diagrams.net" modified="2023-08-15T02:43:28.589Z" agent="Mozilla/5.0 (Windows NT 10.0; Win64; x64) AppleWebKit/537.36 (KHTML, like Gecko) Chrome/116.0.0.0 Safari/537.36 Edg/116.0.1938.43" etag="vG8Mz9WNSjaF1pMT443S" version="21.3.5" type="github">
  <diagram name="第 1 页" id="7U08_PiWovxvM-KHTGbF">
    <mxGraphModel dx="762" dy="605" grid="1" gridSize="10" guides="1" tooltips="1" connect="1" arrows="1" fold="1" page="1" pageScale="1" pageWidth="827" pageHeight="1169" math="0" shadow="0">
      <root>
        <mxCell id="0" />
        <mxCell id="1" parent="0" />
        <mxCell id="S12dJG0YQrAxgfUeFq4O-70" value="" style="group" parent="1" vertex="1" connectable="0">
          <mxGeometry x="750" y="240" width="220" height="540" as="geometry" />
        </mxCell>
        <mxCell id="S12dJG0YQrAxgfUeFq4O-24" value="药品管理" style="ellipse;whiteSpace=wrap;html=1;" parent="S12dJG0YQrAxgfUeFq4O-70" vertex="1">
          <mxGeometry x="120" y="450" width="100" height="40" as="geometry" />
        </mxCell>
        <mxCell id="S12dJG0YQrAxgfUeFq4O-26" value="值班管理" style="ellipse;whiteSpace=wrap;html=1;" parent="S12dJG0YQrAxgfUeFq4O-70" vertex="1">
          <mxGeometry x="120" y="500" width="100" height="40" as="geometry" />
        </mxCell>
        <mxCell id="S12dJG0YQrAxgfUeFq4O-68" style="edgeStyle=none;rounded=0;orthogonalLoop=1;jettySize=auto;html=1;exitX=0.5;exitY=0.5;exitDx=0;exitDy=0;exitPerimeter=0;entryX=0;entryY=0.5;entryDx=0;entryDy=0;" parent="S12dJG0YQrAxgfUeFq4O-70" source="2G7LzGAWLY5ywAbXNIMu-13" target="S12dJG0YQrAxgfUeFq4O-24" edge="1">
          <mxGeometry relative="1" as="geometry" />
        </mxCell>
        <mxCell id="S12dJG0YQrAxgfUeFq4O-69" style="edgeStyle=none;rounded=0;orthogonalLoop=1;jettySize=auto;html=1;exitX=0.5;exitY=0.5;exitDx=0;exitDy=0;exitPerimeter=0;entryX=0;entryY=0.5;entryDx=0;entryDy=0;" parent="S12dJG0YQrAxgfUeFq4O-70" source="2G7LzGAWLY5ywAbXNIMu-13" target="S12dJG0YQrAxgfUeFq4O-26" edge="1">
          <mxGeometry relative="1" as="geometry" />
        </mxCell>
        <mxCell id="2G7LzGAWLY5ywAbXNIMu-13" value="管理员" style="shape=umlActor;verticalLabelPosition=bottom;verticalAlign=top;html=1;" parent="S12dJG0YQrAxgfUeFq4O-70" vertex="1">
          <mxGeometry y="180" width="30" height="60" as="geometry" />
        </mxCell>
        <mxCell id="S12dJG0YQrAxgfUeFq4O-16" value="用户管理" style="ellipse;whiteSpace=wrap;html=1;" parent="S12dJG0YQrAxgfUeFq4O-70" vertex="1">
          <mxGeometry x="120" width="100" height="40" as="geometry" />
        </mxCell>
        <mxCell id="S12dJG0YQrAxgfUeFq4O-41" style="rounded=0;orthogonalLoop=1;jettySize=auto;html=1;exitX=0.5;exitY=0.5;exitDx=0;exitDy=0;exitPerimeter=0;entryX=0;entryY=1;entryDx=0;entryDy=0;" parent="S12dJG0YQrAxgfUeFq4O-70" source="2G7LzGAWLY5ywAbXNIMu-13" target="S12dJG0YQrAxgfUeFq4O-16" edge="1">
          <mxGeometry relative="1" as="geometry" />
        </mxCell>
        <mxCell id="S12dJG0YQrAxgfUeFq4O-17" value="配药管理" style="ellipse;whiteSpace=wrap;html=1;" parent="S12dJG0YQrAxgfUeFq4O-70" vertex="1">
          <mxGeometry x="120" y="350" width="100" height="40" as="geometry" />
        </mxCell>
        <mxCell id="S12dJG0YQrAxgfUeFq4O-52" style="edgeStyle=none;rounded=0;orthogonalLoop=1;jettySize=auto;html=1;exitX=0.5;exitY=0.5;exitDx=0;exitDy=0;exitPerimeter=0;entryX=0;entryY=0.5;entryDx=0;entryDy=0;" parent="S12dJG0YQrAxgfUeFq4O-70" source="2G7LzGAWLY5ywAbXNIMu-13" target="S12dJG0YQrAxgfUeFq4O-17" edge="1">
          <mxGeometry relative="1" as="geometry" />
        </mxCell>
        <mxCell id="S12dJG0YQrAxgfUeFq4O-18" value="宠物房间管理" style="ellipse;whiteSpace=wrap;html=1;" parent="S12dJG0YQrAxgfUeFq4O-70" vertex="1">
          <mxGeometry x="120" y="300" width="100" height="40" as="geometry" />
        </mxCell>
        <mxCell id="S12dJG0YQrAxgfUeFq4O-51" style="edgeStyle=none;rounded=0;orthogonalLoop=1;jettySize=auto;html=1;exitX=0.5;exitY=0.5;exitDx=0;exitDy=0;exitPerimeter=0;entryX=0;entryY=0.5;entryDx=0;entryDy=0;" parent="S12dJG0YQrAxgfUeFq4O-70" source="2G7LzGAWLY5ywAbXNIMu-13" target="S12dJG0YQrAxgfUeFq4O-18" edge="1">
          <mxGeometry relative="1" as="geometry" />
        </mxCell>
        <mxCell id="S12dJG0YQrAxgfUeFq4O-19" value="宠物病历管理" style="ellipse;whiteSpace=wrap;html=1;" parent="S12dJG0YQrAxgfUeFq4O-70" vertex="1">
          <mxGeometry x="120" y="250" width="100" height="40" as="geometry" />
        </mxCell>
        <mxCell id="S12dJG0YQrAxgfUeFq4O-50" style="edgeStyle=none;rounded=0;orthogonalLoop=1;jettySize=auto;html=1;exitX=0.5;exitY=0.5;exitDx=0;exitDy=0;exitPerimeter=0;entryX=0;entryY=0.5;entryDx=0;entryDy=0;" parent="S12dJG0YQrAxgfUeFq4O-70" source="2G7LzGAWLY5ywAbXNIMu-13" target="S12dJG0YQrAxgfUeFq4O-19" edge="1">
          <mxGeometry relative="1" as="geometry" />
        </mxCell>
        <mxCell id="S12dJG0YQrAxgfUeFq4O-20" value="预约管理" style="ellipse;whiteSpace=wrap;html=1;" parent="S12dJG0YQrAxgfUeFq4O-70" vertex="1">
          <mxGeometry x="120" y="200" width="100" height="40" as="geometry" />
        </mxCell>
        <mxCell id="S12dJG0YQrAxgfUeFq4O-49" style="edgeStyle=none;rounded=0;orthogonalLoop=1;jettySize=auto;html=1;exitX=0.5;exitY=0.5;exitDx=0;exitDy=0;exitPerimeter=0;entryX=0;entryY=0.5;entryDx=0;entryDy=0;" parent="S12dJG0YQrAxgfUeFq4O-70" source="2G7LzGAWLY5ywAbXNIMu-13" target="S12dJG0YQrAxgfUeFq4O-20" edge="1">
          <mxGeometry relative="1" as="geometry" />
        </mxCell>
        <mxCell id="S12dJG0YQrAxgfUeFq4O-21" value="项目管理" style="ellipse;whiteSpace=wrap;html=1;" parent="S12dJG0YQrAxgfUeFq4O-70" vertex="1">
          <mxGeometry x="120" y="150" width="100" height="40" as="geometry" />
        </mxCell>
        <mxCell id="S12dJG0YQrAxgfUeFq4O-48" style="edgeStyle=none;rounded=0;orthogonalLoop=1;jettySize=auto;html=1;exitX=0.5;exitY=0.5;exitDx=0;exitDy=0;exitPerimeter=0;entryX=0;entryY=0.5;entryDx=0;entryDy=0;" parent="S12dJG0YQrAxgfUeFq4O-70" source="2G7LzGAWLY5ywAbXNIMu-13" target="S12dJG0YQrAxgfUeFq4O-21" edge="1">
          <mxGeometry relative="1" as="geometry" />
        </mxCell>
        <mxCell id="S12dJG0YQrAxgfUeFq4O-22" value="宠物管理" style="ellipse;whiteSpace=wrap;html=1;" parent="S12dJG0YQrAxgfUeFq4O-70" vertex="1">
          <mxGeometry x="120" y="100" width="100" height="40" as="geometry" />
        </mxCell>
        <mxCell id="S12dJG0YQrAxgfUeFq4O-46" style="edgeStyle=none;rounded=0;orthogonalLoop=1;jettySize=auto;html=1;exitX=0.5;exitY=0.5;exitDx=0;exitDy=0;exitPerimeter=0;" parent="S12dJG0YQrAxgfUeFq4O-70" source="2G7LzGAWLY5ywAbXNIMu-13" target="S12dJG0YQrAxgfUeFq4O-22" edge="1">
          <mxGeometry relative="1" as="geometry" />
        </mxCell>
        <mxCell id="S12dJG0YQrAxgfUeFq4O-23" value="员工管理" style="ellipse;whiteSpace=wrap;html=1;" parent="S12dJG0YQrAxgfUeFq4O-70" vertex="1">
          <mxGeometry x="120" y="50" width="100" height="40" as="geometry" />
        </mxCell>
        <mxCell id="S12dJG0YQrAxgfUeFq4O-47" style="edgeStyle=none;rounded=0;orthogonalLoop=1;jettySize=auto;html=1;exitX=0.5;exitY=0.5;exitDx=0;exitDy=0;exitPerimeter=0;entryX=0.052;entryY=0.82;entryDx=0;entryDy=0;entryPerimeter=0;" parent="S12dJG0YQrAxgfUeFq4O-70" source="2G7LzGAWLY5ywAbXNIMu-13" target="S12dJG0YQrAxgfUeFq4O-23" edge="1">
          <mxGeometry relative="1" as="geometry" />
        </mxCell>
        <mxCell id="S12dJG0YQrAxgfUeFq4O-25" value="权限控制" style="ellipse;whiteSpace=wrap;html=1;" parent="S12dJG0YQrAxgfUeFq4O-70" vertex="1">
          <mxGeometry x="120" y="400" width="100" height="40" as="geometry" />
        </mxCell>
        <mxCell id="S12dJG0YQrAxgfUeFq4O-53" style="edgeStyle=none;rounded=0;orthogonalLoop=1;jettySize=auto;html=1;exitX=0.5;exitY=0.5;exitDx=0;exitDy=0;exitPerimeter=0;entryX=0;entryY=0.5;entryDx=0;entryDy=0;" parent="S12dJG0YQrAxgfUeFq4O-70" source="2G7LzGAWLY5ywAbXNIMu-13" target="S12dJG0YQrAxgfUeFq4O-25" edge="1">
          <mxGeometry relative="1" as="geometry" />
        </mxCell>
        <mxCell id="k7OL1M4o2ZJc6cWTYvOp-9" value="" style="group" parent="1" vertex="1" connectable="0">
          <mxGeometry x="740" y="20" width="170" height="160" as="geometry" />
        </mxCell>
        <mxCell id="2G7LzGAWLY5ywAbXNIMu-1" value="游客" style="shape=umlActor;verticalLabelPosition=bottom;verticalAlign=top;html=1;" parent="k7OL1M4o2ZJc6cWTYvOp-9" vertex="1">
          <mxGeometry y="45" width="30" height="60" as="geometry" />
        </mxCell>
        <mxCell id="2G7LzGAWLY5ywAbXNIMu-2" value="注册" style="ellipse;whiteSpace=wrap;html=1;" parent="k7OL1M4o2ZJc6cWTYvOp-9" vertex="1">
          <mxGeometry x="80" width="90" height="50" as="geometry" />
        </mxCell>
        <mxCell id="k7OL1M4o2ZJc6cWTYvOp-8" style="edgeStyle=none;rounded=0;orthogonalLoop=1;jettySize=auto;html=1;exitX=1;exitY=0.3333333333333333;exitDx=0;exitDy=0;exitPerimeter=0;entryX=0;entryY=0.5;entryDx=0;entryDy=0;" parent="k7OL1M4o2ZJc6cWTYvOp-9" source="2G7LzGAWLY5ywAbXNIMu-1" target="2G7LzGAWLY5ywAbXNIMu-2" edge="1">
          <mxGeometry relative="1" as="geometry" />
        </mxCell>
        <mxCell id="k7OL1M4o2ZJc6cWTYvOp-2" value="登录" style="ellipse;whiteSpace=wrap;html=1;" parent="k7OL1M4o2ZJc6cWTYvOp-9" vertex="1">
          <mxGeometry x="80" y="55" width="90" height="50" as="geometry" />
        </mxCell>
        <mxCell id="k7OL1M4o2ZJc6cWTYvOp-6" style="edgeStyle=none;rounded=0;orthogonalLoop=1;jettySize=auto;html=1;exitX=1;exitY=0.3333333333333333;exitDx=0;exitDy=0;exitPerimeter=0;" parent="k7OL1M4o2ZJc6cWTYvOp-9" source="2G7LzGAWLY5ywAbXNIMu-1" target="k7OL1M4o2ZJc6cWTYvOp-2" edge="1">
          <mxGeometry relative="1" as="geometry" />
        </mxCell>
        <mxCell id="k7OL1M4o2ZJc6cWTYvOp-3" value="找回密码" style="ellipse;whiteSpace=wrap;html=1;" parent="k7OL1M4o2ZJc6cWTYvOp-9" vertex="1">
          <mxGeometry x="80" y="110" width="90" height="50" as="geometry" />
        </mxCell>
        <mxCell id="k7OL1M4o2ZJc6cWTYvOp-7" style="edgeStyle=none;rounded=0;orthogonalLoop=1;jettySize=auto;html=1;exitX=1;exitY=0.3333333333333333;exitDx=0;exitDy=0;exitPerimeter=0;entryX=0;entryY=0.5;entryDx=0;entryDy=0;" parent="k7OL1M4o2ZJc6cWTYvOp-9" source="2G7LzGAWLY5ywAbXNIMu-1" target="k7OL1M4o2ZJc6cWTYvOp-3" edge="1">
          <mxGeometry relative="1" as="geometry" />
        </mxCell>
        <mxCell id="UwDjR_BW3tn6y8qIKl93-83" value="" style="group" parent="1" vertex="1" connectable="0">
          <mxGeometry x="840" y="1650" width="430" height="710" as="geometry" />
        </mxCell>
        <mxCell id="S12dJG0YQrAxgfUeFq4O-33" value="药师" style="shape=umlActor;verticalLabelPosition=bottom;verticalAlign=top;html=1;" parent="UwDjR_BW3tn6y8qIKl93-83" vertex="1">
          <mxGeometry y="150" width="30" height="60" as="geometry" />
        </mxCell>
        <mxCell id="S12dJG0YQrAxgfUeFq4O-34" value="员工个人信息管理" style="ellipse;whiteSpace=wrap;html=1;" parent="UwDjR_BW3tn6y8qIKl93-83" vertex="1">
          <mxGeometry x="80" y="20" width="100" height="40" as="geometry" />
        </mxCell>
        <mxCell id="S12dJG0YQrAxgfUeFq4O-62" style="edgeStyle=none;rounded=0;orthogonalLoop=1;jettySize=auto;html=1;exitX=0.5;exitY=0.5;exitDx=0;exitDy=0;exitPerimeter=0;entryX=-0.004;entryY=0.318;entryDx=0;entryDy=0;entryPerimeter=0;" parent="UwDjR_BW3tn6y8qIKl93-83" source="S12dJG0YQrAxgfUeFq4O-33" target="S12dJG0YQrAxgfUeFq4O-34" edge="1">
          <mxGeometry relative="1" as="geometry" />
        </mxCell>
        <mxCell id="S12dJG0YQrAxgfUeFq4O-35" value="个人信息管理" style="ellipse;whiteSpace=wrap;html=1;" parent="UwDjR_BW3tn6y8qIKl93-83" vertex="1">
          <mxGeometry x="70" y="120" width="100" height="40" as="geometry" />
        </mxCell>
        <mxCell id="S12dJG0YQrAxgfUeFq4O-63" style="edgeStyle=none;rounded=0;orthogonalLoop=1;jettySize=auto;html=1;exitX=0.5;exitY=0.5;exitDx=0;exitDy=0;exitPerimeter=0;entryX=0;entryY=0.5;entryDx=0;entryDy=0;" parent="UwDjR_BW3tn6y8qIKl93-83" source="S12dJG0YQrAxgfUeFq4O-33" target="S12dJG0YQrAxgfUeFq4O-35" edge="1">
          <mxGeometry relative="1" as="geometry" />
        </mxCell>
        <mxCell id="S12dJG0YQrAxgfUeFq4O-36" value="值班信息管理" style="ellipse;whiteSpace=wrap;html=1;" parent="UwDjR_BW3tn6y8qIKl93-83" vertex="1">
          <mxGeometry x="90" y="220" width="100" height="40" as="geometry" />
        </mxCell>
        <mxCell id="S12dJG0YQrAxgfUeFq4O-64" style="edgeStyle=none;rounded=0;orthogonalLoop=1;jettySize=auto;html=1;exitX=0.5;exitY=0.5;exitDx=0;exitDy=0;exitPerimeter=0;entryX=0;entryY=0.5;entryDx=0;entryDy=0;" parent="UwDjR_BW3tn6y8qIKl93-83" source="S12dJG0YQrAxgfUeFq4O-33" target="S12dJG0YQrAxgfUeFq4O-36" edge="1">
          <mxGeometry relative="1" as="geometry" />
        </mxCell>
        <mxCell id="S12dJG0YQrAxgfUeFq4O-37" value="我的配药" style="ellipse;whiteSpace=wrap;html=1;" parent="UwDjR_BW3tn6y8qIKl93-83" vertex="1">
          <mxGeometry x="70" y="350" width="100" height="40" as="geometry" />
        </mxCell>
        <mxCell id="UwDjR_BW3tn6y8qIKl93-81" style="edgeStyle=none;rounded=0;orthogonalLoop=1;jettySize=auto;html=1;exitX=0.5;exitY=0.5;exitDx=0;exitDy=0;exitPerimeter=0;entryX=0;entryY=0.5;entryDx=0;entryDy=0;" parent="UwDjR_BW3tn6y8qIKl93-83" source="S12dJG0YQrAxgfUeFq4O-33" target="S12dJG0YQrAxgfUeFq4O-37" edge="1">
          <mxGeometry relative="1" as="geometry" />
        </mxCell>
        <mxCell id="S12dJG0YQrAxgfUeFq4O-85" value="查看值班信息" style="ellipse;whiteSpace=wrap;html=1;" parent="UwDjR_BW3tn6y8qIKl93-83" vertex="1">
          <mxGeometry x="330" y="210" width="100" height="40" as="geometry" />
        </mxCell>
        <mxCell id="S12dJG0YQrAxgfUeFq4O-86" style="edgeStyle=none;rounded=0;orthogonalLoop=1;jettySize=auto;html=1;exitX=1;exitY=0.5;exitDx=0;exitDy=0;entryX=0;entryY=0.5;entryDx=0;entryDy=0;" parent="UwDjR_BW3tn6y8qIKl93-83" source="S12dJG0YQrAxgfUeFq4O-36" target="S12dJG0YQrAxgfUeFq4O-85" edge="1">
          <mxGeometry relative="1" as="geometry" />
        </mxCell>
        <mxCell id="S12dJG0YQrAxgfUeFq4O-108" value="药品信息管理" style="ellipse;whiteSpace=wrap;html=1;" parent="UwDjR_BW3tn6y8qIKl93-83" vertex="1">
          <mxGeometry x="80" y="510" width="100" height="40" as="geometry" />
        </mxCell>
        <mxCell id="UwDjR_BW3tn6y8qIKl93-82" style="edgeStyle=none;rounded=0;orthogonalLoop=1;jettySize=auto;html=1;exitX=0.5;exitY=0.5;exitDx=0;exitDy=0;exitPerimeter=0;entryX=0;entryY=0.5;entryDx=0;entryDy=0;" parent="UwDjR_BW3tn6y8qIKl93-83" source="S12dJG0YQrAxgfUeFq4O-33" target="S12dJG0YQrAxgfUeFq4O-108" edge="1">
          <mxGeometry relative="1" as="geometry" />
        </mxCell>
        <mxCell id="UwDjR_BW3tn6y8qIKl93-47" value="查看员工个人信息" style="ellipse;whiteSpace=wrap;html=1;" parent="UwDjR_BW3tn6y8qIKl93-83" vertex="1">
          <mxGeometry x="320" width="100" height="40" as="geometry" />
        </mxCell>
        <mxCell id="UwDjR_BW3tn6y8qIKl93-65" style="edgeStyle=none;rounded=0;orthogonalLoop=1;jettySize=auto;html=1;exitX=1;exitY=0.5;exitDx=0;exitDy=0;entryX=0;entryY=0.5;entryDx=0;entryDy=0;" parent="UwDjR_BW3tn6y8qIKl93-83" source="S12dJG0YQrAxgfUeFq4O-34" target="UwDjR_BW3tn6y8qIKl93-47" edge="1">
          <mxGeometry relative="1" as="geometry" />
        </mxCell>
        <mxCell id="UwDjR_BW3tn6y8qIKl93-51" value="查看个人信息" style="ellipse;whiteSpace=wrap;html=1;" parent="UwDjR_BW3tn6y8qIKl93-83" vertex="1">
          <mxGeometry x="320" y="50" width="100" height="40" as="geometry" />
        </mxCell>
        <mxCell id="UwDjR_BW3tn6y8qIKl93-66" style="edgeStyle=none;rounded=0;orthogonalLoop=1;jettySize=auto;html=1;exitX=1;exitY=0.5;exitDx=0;exitDy=0;entryX=0;entryY=0.5;entryDx=0;entryDy=0;" parent="UwDjR_BW3tn6y8qIKl93-83" source="S12dJG0YQrAxgfUeFq4O-35" target="UwDjR_BW3tn6y8qIKl93-51" edge="1">
          <mxGeometry relative="1" as="geometry" />
        </mxCell>
        <mxCell id="UwDjR_BW3tn6y8qIKl93-52" value="修改个人信息" style="ellipse;whiteSpace=wrap;html=1;" parent="UwDjR_BW3tn6y8qIKl93-83" vertex="1">
          <mxGeometry x="320" y="104" width="100" height="40" as="geometry" />
        </mxCell>
        <mxCell id="UwDjR_BW3tn6y8qIKl93-67" style="edgeStyle=none;rounded=0;orthogonalLoop=1;jettySize=auto;html=1;exitX=1;exitY=0.5;exitDx=0;exitDy=0;entryX=0;entryY=0.5;entryDx=0;entryDy=0;" parent="UwDjR_BW3tn6y8qIKl93-83" source="S12dJG0YQrAxgfUeFq4O-35" target="UwDjR_BW3tn6y8qIKl93-52" edge="1">
          <mxGeometry relative="1" as="geometry" />
        </mxCell>
        <mxCell id="UwDjR_BW3tn6y8qIKl93-55" style="edgeStyle=none;rounded=0;orthogonalLoop=1;jettySize=auto;html=1;exitX=0.5;exitY=1;exitDx=0;exitDy=0;" parent="UwDjR_BW3tn6y8qIKl93-83" source="UwDjR_BW3tn6y8qIKl93-54" edge="1">
          <mxGeometry relative="1" as="geometry">
            <mxPoint x="370" y="290" as="targetPoint" />
          </mxGeometry>
        </mxCell>
        <mxCell id="UwDjR_BW3tn6y8qIKl93-53" value="修改密码" style="ellipse;whiteSpace=wrap;html=1;" parent="UwDjR_BW3tn6y8qIKl93-83" vertex="1">
          <mxGeometry x="320" y="150" width="100" height="40" as="geometry" />
        </mxCell>
        <mxCell id="UwDjR_BW3tn6y8qIKl93-68" style="edgeStyle=none;rounded=0;orthogonalLoop=1;jettySize=auto;html=1;exitX=1;exitY=0.5;exitDx=0;exitDy=0;entryX=0;entryY=0.5;entryDx=0;entryDy=0;" parent="UwDjR_BW3tn6y8qIKl93-83" source="S12dJG0YQrAxgfUeFq4O-35" target="UwDjR_BW3tn6y8qIKl93-53" edge="1">
          <mxGeometry relative="1" as="geometry" />
        </mxCell>
        <mxCell id="UwDjR_BW3tn6y8qIKl93-54" value="搜索值班信息" style="ellipse;whiteSpace=wrap;html=1;" parent="UwDjR_BW3tn6y8qIKl93-83" vertex="1">
          <mxGeometry x="330" y="260" width="100" height="40" as="geometry" />
        </mxCell>
        <mxCell id="UwDjR_BW3tn6y8qIKl93-69" style="edgeStyle=none;rounded=0;orthogonalLoop=1;jettySize=auto;html=1;exitX=1;exitY=0.5;exitDx=0;exitDy=0;entryX=0;entryY=0.5;entryDx=0;entryDy=0;" parent="UwDjR_BW3tn6y8qIKl93-83" source="S12dJG0YQrAxgfUeFq4O-36" target="UwDjR_BW3tn6y8qIKl93-54" edge="1">
          <mxGeometry relative="1" as="geometry" />
        </mxCell>
        <mxCell id="UwDjR_BW3tn6y8qIKl93-57" value="搜索" style="ellipse;whiteSpace=wrap;html=1;" parent="UwDjR_BW3tn6y8qIKl93-83" vertex="1">
          <mxGeometry x="330" y="410" width="100" height="40" as="geometry" />
        </mxCell>
        <mxCell id="UwDjR_BW3tn6y8qIKl93-73" style="edgeStyle=none;rounded=0;orthogonalLoop=1;jettySize=auto;html=1;exitX=1;exitY=0.5;exitDx=0;exitDy=0;entryX=0;entryY=0.5;entryDx=0;entryDy=0;" parent="UwDjR_BW3tn6y8qIKl93-83" source="S12dJG0YQrAxgfUeFq4O-108" target="UwDjR_BW3tn6y8qIKl93-57" edge="1">
          <mxGeometry relative="1" as="geometry" />
        </mxCell>
        <mxCell id="UwDjR_BW3tn6y8qIKl93-58" value="查看" style="ellipse;whiteSpace=wrap;html=1;" parent="UwDjR_BW3tn6y8qIKl93-83" vertex="1">
          <mxGeometry x="330" y="460" width="100" height="40" as="geometry" />
        </mxCell>
        <mxCell id="UwDjR_BW3tn6y8qIKl93-74" style="edgeStyle=none;rounded=0;orthogonalLoop=1;jettySize=auto;html=1;exitX=1;exitY=0.5;exitDx=0;exitDy=0;entryX=0;entryY=0.5;entryDx=0;entryDy=0;" parent="UwDjR_BW3tn6y8qIKl93-83" source="S12dJG0YQrAxgfUeFq4O-108" target="UwDjR_BW3tn6y8qIKl93-58" edge="1">
          <mxGeometry relative="1" as="geometry" />
        </mxCell>
        <mxCell id="UwDjR_BW3tn6y8qIKl93-59" value="修改" style="ellipse;whiteSpace=wrap;html=1;" parent="UwDjR_BW3tn6y8qIKl93-83" vertex="1">
          <mxGeometry x="330" y="510" width="100" height="40" as="geometry" />
        </mxCell>
        <mxCell id="UwDjR_BW3tn6y8qIKl93-75" style="edgeStyle=none;rounded=0;orthogonalLoop=1;jettySize=auto;html=1;exitX=1;exitY=0.5;exitDx=0;exitDy=0;entryX=0;entryY=0.5;entryDx=0;entryDy=0;" parent="UwDjR_BW3tn6y8qIKl93-83" source="S12dJG0YQrAxgfUeFq4O-108" target="UwDjR_BW3tn6y8qIKl93-59" edge="1">
          <mxGeometry relative="1" as="geometry" />
        </mxCell>
        <mxCell id="UwDjR_BW3tn6y8qIKl93-60" value="删除" style="ellipse;whiteSpace=wrap;html=1;" parent="UwDjR_BW3tn6y8qIKl93-83" vertex="1">
          <mxGeometry x="330" y="560" width="100" height="40" as="geometry" />
        </mxCell>
        <mxCell id="UwDjR_BW3tn6y8qIKl93-76" style="edgeStyle=none;rounded=0;orthogonalLoop=1;jettySize=auto;html=1;exitX=1;exitY=0.5;exitDx=0;exitDy=0;entryX=0;entryY=0.5;entryDx=0;entryDy=0;" parent="UwDjR_BW3tn6y8qIKl93-83" source="S12dJG0YQrAxgfUeFq4O-108" target="UwDjR_BW3tn6y8qIKl93-60" edge="1">
          <mxGeometry relative="1" as="geometry" />
        </mxCell>
        <mxCell id="UwDjR_BW3tn6y8qIKl93-61" value="添加" style="ellipse;whiteSpace=wrap;html=1;" parent="UwDjR_BW3tn6y8qIKl93-83" vertex="1">
          <mxGeometry x="330" y="670" width="100" height="40" as="geometry" />
        </mxCell>
        <mxCell id="UwDjR_BW3tn6y8qIKl93-62" value="查看我的配药" style="ellipse;whiteSpace=wrap;html=1;" parent="UwDjR_BW3tn6y8qIKl93-83" vertex="1">
          <mxGeometry x="330" y="310" width="100" height="40" as="geometry" />
        </mxCell>
        <mxCell id="UwDjR_BW3tn6y8qIKl93-63" value="完成配药" style="ellipse;whiteSpace=wrap;html=1;" parent="UwDjR_BW3tn6y8qIKl93-83" vertex="1">
          <mxGeometry x="330" y="360" width="100" height="40" as="geometry" />
        </mxCell>
        <mxCell id="UwDjR_BW3tn6y8qIKl93-64" value="批量删除" style="ellipse;whiteSpace=wrap;html=1;" parent="UwDjR_BW3tn6y8qIKl93-83" vertex="1">
          <mxGeometry x="330" y="610" width="100" height="40" as="geometry" />
        </mxCell>
        <mxCell id="UwDjR_BW3tn6y8qIKl93-78" style="edgeStyle=none;rounded=0;orthogonalLoop=1;jettySize=auto;html=1;exitX=1;exitY=0.5;exitDx=0;exitDy=0;entryX=0.013;entryY=0.349;entryDx=0;entryDy=0;entryPerimeter=0;" parent="UwDjR_BW3tn6y8qIKl93-83" source="S12dJG0YQrAxgfUeFq4O-108" target="UwDjR_BW3tn6y8qIKl93-61" edge="1">
          <mxGeometry relative="1" as="geometry" />
        </mxCell>
        <mxCell id="UwDjR_BW3tn6y8qIKl93-71" style="edgeStyle=none;rounded=0;orthogonalLoop=1;jettySize=auto;html=1;exitX=1;exitY=0.5;exitDx=0;exitDy=0;entryX=0;entryY=0.5;entryDx=0;entryDy=0;" parent="UwDjR_BW3tn6y8qIKl93-83" source="S12dJG0YQrAxgfUeFq4O-37" target="UwDjR_BW3tn6y8qIKl93-62" edge="1">
          <mxGeometry relative="1" as="geometry" />
        </mxCell>
        <mxCell id="UwDjR_BW3tn6y8qIKl93-72" style="edgeStyle=none;rounded=0;orthogonalLoop=1;jettySize=auto;html=1;exitX=1;exitY=0.5;exitDx=0;exitDy=0;entryX=0;entryY=0.5;entryDx=0;entryDy=0;" parent="UwDjR_BW3tn6y8qIKl93-83" source="S12dJG0YQrAxgfUeFq4O-37" target="UwDjR_BW3tn6y8qIKl93-63" edge="1">
          <mxGeometry relative="1" as="geometry" />
        </mxCell>
        <mxCell id="UwDjR_BW3tn6y8qIKl93-77" style="edgeStyle=none;rounded=0;orthogonalLoop=1;jettySize=auto;html=1;exitX=1;exitY=0.5;exitDx=0;exitDy=0;entryX=0;entryY=0.5;entryDx=0;entryDy=0;" parent="UwDjR_BW3tn6y8qIKl93-83" source="S12dJG0YQrAxgfUeFq4O-108" target="UwDjR_BW3tn6y8qIKl93-64" edge="1">
          <mxGeometry relative="1" as="geometry" />
        </mxCell>
        <mxCell id="UwDjR_BW3tn6y8qIKl93-84" value="" style="group" parent="1" vertex="1" connectable="0">
          <mxGeometry x="740" y="810" width="480" height="810" as="geometry" />
        </mxCell>
        <mxCell id="2G7LzGAWLY5ywAbXNIMu-11" value="客户" style="shape=umlActor;verticalLabelPosition=bottom;verticalAlign=top;html=1;" parent="UwDjR_BW3tn6y8qIKl93-84" vertex="1">
          <mxGeometry y="310" width="30" height="60" as="geometry" />
        </mxCell>
        <mxCell id="S12dJG0YQrAxgfUeFq4O-7" value="项目信息管理" style="ellipse;whiteSpace=wrap;html=1;" parent="UwDjR_BW3tn6y8qIKl93-84" vertex="1">
          <mxGeometry x="160" y="190" width="100" height="40" as="geometry" />
        </mxCell>
        <mxCell id="S12dJG0YQrAxgfUeFq4O-59" style="edgeStyle=none;rounded=0;orthogonalLoop=1;jettySize=auto;html=1;exitX=0.5;exitY=0.5;exitDx=0;exitDy=0;exitPerimeter=0;entryX=0;entryY=0.5;entryDx=0;entryDy=0;" parent="UwDjR_BW3tn6y8qIKl93-84" source="2G7LzGAWLY5ywAbXNIMu-11" target="S12dJG0YQrAxgfUeFq4O-7" edge="1">
          <mxGeometry relative="1" as="geometry" />
        </mxCell>
        <mxCell id="S12dJG0YQrAxgfUeFq4O-10" value="个人信息管理" style="ellipse;whiteSpace=wrap;html=1;" parent="UwDjR_BW3tn6y8qIKl93-84" vertex="1">
          <mxGeometry x="170" y="50" width="100" height="40" as="geometry" />
        </mxCell>
        <mxCell id="S12dJG0YQrAxgfUeFq4O-58" style="edgeStyle=none;rounded=0;orthogonalLoop=1;jettySize=auto;html=1;exitX=0.5;exitY=0.5;exitDx=0;exitDy=0;exitPerimeter=0;entryX=0;entryY=0.5;entryDx=0;entryDy=0;" parent="UwDjR_BW3tn6y8qIKl93-84" source="2G7LzGAWLY5ywAbXNIMu-11" target="S12dJG0YQrAxgfUeFq4O-10" edge="1">
          <mxGeometry relative="1" as="geometry" />
        </mxCell>
        <mxCell id="S12dJG0YQrAxgfUeFq4O-11" value="预约看病" style="ellipse;whiteSpace=wrap;html=1;" parent="UwDjR_BW3tn6y8qIKl93-84" vertex="1">
          <mxGeometry x="370" y="190" width="100" height="40" as="geometry" />
        </mxCell>
        <mxCell id="S12dJG0YQrAxgfUeFq4O-71" style="edgeStyle=none;rounded=0;orthogonalLoop=1;jettySize=auto;html=1;exitX=1;exitY=0.5;exitDx=0;exitDy=0;entryX=0;entryY=0.5;entryDx=0;entryDy=0;" parent="UwDjR_BW3tn6y8qIKl93-84" source="S12dJG0YQrAxgfUeFq4O-7" target="S12dJG0YQrAxgfUeFq4O-11" edge="1">
          <mxGeometry relative="1" as="geometry" />
        </mxCell>
        <mxCell id="S12dJG0YQrAxgfUeFq4O-12" value="历史预约管理" style="ellipse;whiteSpace=wrap;html=1;" parent="UwDjR_BW3tn6y8qIKl93-84" vertex="1">
          <mxGeometry x="160" y="350" width="100" height="40" as="geometry" />
        </mxCell>
        <mxCell id="S12dJG0YQrAxgfUeFq4O-60" style="edgeStyle=none;rounded=0;orthogonalLoop=1;jettySize=auto;html=1;exitX=0.5;exitY=0.5;exitDx=0;exitDy=0;exitPerimeter=0;entryX=0;entryY=0.5;entryDx=0;entryDy=0;" parent="UwDjR_BW3tn6y8qIKl93-84" source="2G7LzGAWLY5ywAbXNIMu-11" target="S12dJG0YQrAxgfUeFq4O-12" edge="1">
          <mxGeometry relative="1" as="geometry" />
        </mxCell>
        <mxCell id="S12dJG0YQrAxgfUeFq4O-13" value="个人宠物管理" style="ellipse;whiteSpace=wrap;html=1;" parent="UwDjR_BW3tn6y8qIKl93-84" vertex="1">
          <mxGeometry x="160" y="610" width="100" height="40" as="geometry" />
        </mxCell>
        <mxCell id="S12dJG0YQrAxgfUeFq4O-61" style="edgeStyle=none;rounded=0;orthogonalLoop=1;jettySize=auto;html=1;exitX=0.5;exitY=0.5;exitDx=0;exitDy=0;exitPerimeter=0;entryX=0;entryY=0.5;entryDx=0;entryDy=0;" parent="UwDjR_BW3tn6y8qIKl93-84" source="2G7LzGAWLY5ywAbXNIMu-11" target="S12dJG0YQrAxgfUeFq4O-13" edge="1">
          <mxGeometry relative="1" as="geometry" />
        </mxCell>
        <mxCell id="S12dJG0YQrAxgfUeFq4O-14" value="预约托管" style="ellipse;whiteSpace=wrap;html=1;" parent="UwDjR_BW3tn6y8qIKl93-84" vertex="1">
          <mxGeometry x="370" y="275" width="100" height="40" as="geometry" />
        </mxCell>
        <mxCell id="S12dJG0YQrAxgfUeFq4O-73" style="edgeStyle=none;rounded=0;orthogonalLoop=1;jettySize=auto;html=1;exitX=1;exitY=0.5;exitDx=0;exitDy=0;entryX=0;entryY=0.5;entryDx=0;entryDy=0;" parent="UwDjR_BW3tn6y8qIKl93-84" source="S12dJG0YQrAxgfUeFq4O-7" target="S12dJG0YQrAxgfUeFq4O-14" edge="1">
          <mxGeometry relative="1" as="geometry" />
        </mxCell>
        <mxCell id="S12dJG0YQrAxgfUeFq4O-15" value="预约打疫苗" style="ellipse;whiteSpace=wrap;html=1;" parent="UwDjR_BW3tn6y8qIKl93-84" vertex="1">
          <mxGeometry x="370" y="230" width="100" height="40" as="geometry" />
        </mxCell>
        <mxCell id="S12dJG0YQrAxgfUeFq4O-72" style="edgeStyle=none;rounded=0;orthogonalLoop=1;jettySize=auto;html=1;exitX=1;exitY=0.5;exitDx=0;exitDy=0;entryX=0;entryY=0.5;entryDx=0;entryDy=0;" parent="UwDjR_BW3tn6y8qIKl93-84" source="S12dJG0YQrAxgfUeFq4O-7" target="S12dJG0YQrAxgfUeFq4O-15" edge="1">
          <mxGeometry relative="1" as="geometry" />
        </mxCell>
        <mxCell id="S12dJG0YQrAxgfUeFq4O-112" value="查看项目信息" style="ellipse;whiteSpace=wrap;html=1;" parent="UwDjR_BW3tn6y8qIKl93-84" vertex="1">
          <mxGeometry x="370" y="140" width="100" height="40" as="geometry" />
        </mxCell>
        <mxCell id="S12dJG0YQrAxgfUeFq4O-113" style="edgeStyle=none;rounded=0;orthogonalLoop=1;jettySize=auto;html=1;exitX=1;exitY=0.5;exitDx=0;exitDy=0;entryX=0;entryY=0.5;entryDx=0;entryDy=0;" parent="UwDjR_BW3tn6y8qIKl93-84" source="S12dJG0YQrAxgfUeFq4O-7" target="S12dJG0YQrAxgfUeFq4O-112" edge="1">
          <mxGeometry relative="1" as="geometry" />
        </mxCell>
        <mxCell id="UwDjR_BW3tn6y8qIKl93-1" value="查看个人信息" style="ellipse;whiteSpace=wrap;html=1;" parent="UwDjR_BW3tn6y8qIKl93-84" vertex="1">
          <mxGeometry x="370" width="100" height="40" as="geometry" />
        </mxCell>
        <mxCell id="UwDjR_BW3tn6y8qIKl93-11" style="edgeStyle=none;rounded=0;orthogonalLoop=1;jettySize=auto;html=1;exitX=1;exitY=0.5;exitDx=0;exitDy=0;entryX=0.024;entryY=0.7;entryDx=0;entryDy=0;entryPerimeter=0;" parent="UwDjR_BW3tn6y8qIKl93-84" source="S12dJG0YQrAxgfUeFq4O-10" target="UwDjR_BW3tn6y8qIKl93-1" edge="1">
          <mxGeometry relative="1" as="geometry" />
        </mxCell>
        <mxCell id="UwDjR_BW3tn6y8qIKl93-5" value="修改个人信息" style="ellipse;whiteSpace=wrap;html=1;" parent="UwDjR_BW3tn6y8qIKl93-84" vertex="1">
          <mxGeometry x="370" y="40" width="100" height="40" as="geometry" />
        </mxCell>
        <mxCell id="UwDjR_BW3tn6y8qIKl93-12" style="edgeStyle=none;rounded=0;orthogonalLoop=1;jettySize=auto;html=1;exitX=1;exitY=0.5;exitDx=0;exitDy=0;entryX=0;entryY=0.5;entryDx=0;entryDy=0;" parent="UwDjR_BW3tn6y8qIKl93-84" source="S12dJG0YQrAxgfUeFq4O-10" target="UwDjR_BW3tn6y8qIKl93-5" edge="1">
          <mxGeometry relative="1" as="geometry" />
        </mxCell>
        <mxCell id="UwDjR_BW3tn6y8qIKl93-6" value="修改密码" style="ellipse;whiteSpace=wrap;html=1;" parent="UwDjR_BW3tn6y8qIKl93-84" vertex="1">
          <mxGeometry x="380" y="90" width="100" height="40" as="geometry" />
        </mxCell>
        <mxCell id="UwDjR_BW3tn6y8qIKl93-13" style="edgeStyle=none;rounded=0;orthogonalLoop=1;jettySize=auto;html=1;exitX=1;exitY=0.5;exitDx=0;exitDy=0;entryX=0;entryY=0.5;entryDx=0;entryDy=0;" parent="UwDjR_BW3tn6y8qIKl93-84" source="S12dJG0YQrAxgfUeFq4O-10" target="UwDjR_BW3tn6y8qIKl93-6" edge="1">
          <mxGeometry relative="1" as="geometry" />
        </mxCell>
        <mxCell id="UwDjR_BW3tn6y8qIKl93-14" value="查看" style="ellipse;whiteSpace=wrap;html=1;" parent="UwDjR_BW3tn6y8qIKl93-84" vertex="1">
          <mxGeometry x="360" y="570" width="100" height="40" as="geometry" />
        </mxCell>
        <mxCell id="UwDjR_BW3tn6y8qIKl93-18" style="edgeStyle=none;rounded=0;orthogonalLoop=1;jettySize=auto;html=1;exitX=1;exitY=0.5;exitDx=0;exitDy=0;entryX=0;entryY=0.5;entryDx=0;entryDy=0;" parent="UwDjR_BW3tn6y8qIKl93-84" source="S12dJG0YQrAxgfUeFq4O-13" target="UwDjR_BW3tn6y8qIKl93-14" edge="1">
          <mxGeometry relative="1" as="geometry" />
        </mxCell>
        <mxCell id="UwDjR_BW3tn6y8qIKl93-15" value="修改" style="ellipse;whiteSpace=wrap;html=1;" parent="UwDjR_BW3tn6y8qIKl93-84" vertex="1">
          <mxGeometry x="360" y="620" width="100" height="40" as="geometry" />
        </mxCell>
        <mxCell id="UwDjR_BW3tn6y8qIKl93-19" style="edgeStyle=none;rounded=0;orthogonalLoop=1;jettySize=auto;html=1;exitX=1;exitY=0.5;exitDx=0;exitDy=0;entryX=0;entryY=0.5;entryDx=0;entryDy=0;" parent="UwDjR_BW3tn6y8qIKl93-84" source="S12dJG0YQrAxgfUeFq4O-13" target="UwDjR_BW3tn6y8qIKl93-15" edge="1">
          <mxGeometry relative="1" as="geometry" />
        </mxCell>
        <mxCell id="UwDjR_BW3tn6y8qIKl93-16" value="删除" style="ellipse;whiteSpace=wrap;html=1;" parent="UwDjR_BW3tn6y8qIKl93-84" vertex="1">
          <mxGeometry x="360" y="670" width="100" height="40" as="geometry" />
        </mxCell>
        <mxCell id="UwDjR_BW3tn6y8qIKl93-20" style="edgeStyle=none;rounded=0;orthogonalLoop=1;jettySize=auto;html=1;exitX=1;exitY=0.5;exitDx=0;exitDy=0;entryX=0;entryY=0.5;entryDx=0;entryDy=0;" parent="UwDjR_BW3tn6y8qIKl93-84" source="S12dJG0YQrAxgfUeFq4O-13" target="UwDjR_BW3tn6y8qIKl93-16" edge="1">
          <mxGeometry relative="1" as="geometry" />
        </mxCell>
        <mxCell id="UwDjR_BW3tn6y8qIKl93-17" value="添加" style="ellipse;whiteSpace=wrap;html=1;" parent="UwDjR_BW3tn6y8qIKl93-84" vertex="1">
          <mxGeometry x="360" y="770" width="100" height="40" as="geometry" />
        </mxCell>
        <mxCell id="UwDjR_BW3tn6y8qIKl93-21" style="edgeStyle=none;rounded=0;orthogonalLoop=1;jettySize=auto;html=1;exitX=1;exitY=0.5;exitDx=0;exitDy=0;entryX=0.048;entryY=0.31;entryDx=0;entryDy=0;entryPerimeter=0;" parent="UwDjR_BW3tn6y8qIKl93-84" source="S12dJG0YQrAxgfUeFq4O-13" target="UwDjR_BW3tn6y8qIKl93-17" edge="1">
          <mxGeometry relative="1" as="geometry" />
        </mxCell>
        <mxCell id="UwDjR_BW3tn6y8qIKl93-25" value="查看预约记录" style="ellipse;whiteSpace=wrap;html=1;" parent="UwDjR_BW3tn6y8qIKl93-84" vertex="1">
          <mxGeometry x="370" y="325" width="100" height="40" as="geometry" />
        </mxCell>
        <mxCell id="UwDjR_BW3tn6y8qIKl93-26" value="搜索预约记录" style="ellipse;whiteSpace=wrap;html=1;" parent="UwDjR_BW3tn6y8qIKl93-84" vertex="1">
          <mxGeometry x="370" y="370" width="100" height="40" as="geometry" />
        </mxCell>
        <mxCell id="UwDjR_BW3tn6y8qIKl93-27" value="确定预约" style="ellipse;whiteSpace=wrap;html=1;" parent="UwDjR_BW3tn6y8qIKl93-84" vertex="1">
          <mxGeometry x="370" y="420" width="100" height="40" as="geometry" />
        </mxCell>
        <mxCell id="UwDjR_BW3tn6y8qIKl93-28" value="取消预约" style="ellipse;whiteSpace=wrap;html=1;" parent="UwDjR_BW3tn6y8qIKl93-84" vertex="1">
          <mxGeometry x="370" y="470" width="100" height="40" as="geometry" />
        </mxCell>
        <mxCell id="UwDjR_BW3tn6y8qIKl93-29" value="下载病历" style="ellipse;whiteSpace=wrap;html=1;" parent="UwDjR_BW3tn6y8qIKl93-84" vertex="1">
          <mxGeometry x="370" y="520" width="100" height="40" as="geometry" />
        </mxCell>
        <mxCell id="UwDjR_BW3tn6y8qIKl93-79" value="批量删除" style="ellipse;whiteSpace=wrap;html=1;" parent="UwDjR_BW3tn6y8qIKl93-84" vertex="1">
          <mxGeometry x="360" y="720" width="100" height="40" as="geometry" />
        </mxCell>
        <mxCell id="UwDjR_BW3tn6y8qIKl93-30" style="edgeStyle=none;rounded=0;orthogonalLoop=1;jettySize=auto;html=1;exitX=1;exitY=0.5;exitDx=0;exitDy=0;entryX=0;entryY=0.5;entryDx=0;entryDy=0;" parent="UwDjR_BW3tn6y8qIKl93-84" source="S12dJG0YQrAxgfUeFq4O-12" target="UwDjR_BW3tn6y8qIKl93-25" edge="1">
          <mxGeometry relative="1" as="geometry" />
        </mxCell>
        <mxCell id="UwDjR_BW3tn6y8qIKl93-31" style="edgeStyle=none;rounded=0;orthogonalLoop=1;jettySize=auto;html=1;exitX=1;exitY=0.5;exitDx=0;exitDy=0;entryX=0;entryY=0.5;entryDx=0;entryDy=0;" parent="UwDjR_BW3tn6y8qIKl93-84" source="S12dJG0YQrAxgfUeFq4O-12" target="UwDjR_BW3tn6y8qIKl93-26" edge="1">
          <mxGeometry relative="1" as="geometry" />
        </mxCell>
        <mxCell id="UwDjR_BW3tn6y8qIKl93-32" style="edgeStyle=none;rounded=0;orthogonalLoop=1;jettySize=auto;html=1;exitX=1;exitY=0.5;exitDx=0;exitDy=0;entryX=0;entryY=0.5;entryDx=0;entryDy=0;" parent="UwDjR_BW3tn6y8qIKl93-84" source="S12dJG0YQrAxgfUeFq4O-12" target="UwDjR_BW3tn6y8qIKl93-27" edge="1">
          <mxGeometry relative="1" as="geometry" />
        </mxCell>
        <mxCell id="UwDjR_BW3tn6y8qIKl93-33" style="edgeStyle=none;rounded=0;orthogonalLoop=1;jettySize=auto;html=1;exitX=1;exitY=0.5;exitDx=0;exitDy=0;entryX=0;entryY=0.5;entryDx=0;entryDy=0;" parent="UwDjR_BW3tn6y8qIKl93-84" source="S12dJG0YQrAxgfUeFq4O-12" target="UwDjR_BW3tn6y8qIKl93-28" edge="1">
          <mxGeometry relative="1" as="geometry" />
        </mxCell>
        <mxCell id="UwDjR_BW3tn6y8qIKl93-34" style="edgeStyle=none;rounded=0;orthogonalLoop=1;jettySize=auto;html=1;exitX=1;exitY=0.5;exitDx=0;exitDy=0;entryX=0;entryY=0.5;entryDx=0;entryDy=0;" parent="UwDjR_BW3tn6y8qIKl93-84" source="S12dJG0YQrAxgfUeFq4O-12" target="UwDjR_BW3tn6y8qIKl93-29" edge="1">
          <mxGeometry relative="1" as="geometry" />
        </mxCell>
        <mxCell id="UwDjR_BW3tn6y8qIKl93-80" style="edgeStyle=none;rounded=0;orthogonalLoop=1;jettySize=auto;html=1;exitX=1;exitY=0.5;exitDx=0;exitDy=0;entryX=0;entryY=0.5;entryDx=0;entryDy=0;" parent="UwDjR_BW3tn6y8qIKl93-84" source="S12dJG0YQrAxgfUeFq4O-13" target="UwDjR_BW3tn6y8qIKl93-79" edge="1">
          <mxGeometry relative="1" as="geometry" />
        </mxCell>
        <mxCell id="UwDjR_BW3tn6y8qIKl93-135" value="" style="group" parent="1" vertex="1" connectable="0">
          <mxGeometry x="970" y="3290" width="410" height="650" as="geometry" />
        </mxCell>
        <mxCell id="UwDjR_BW3tn6y8qIKl93-107" value="查看员工个人信息" style="ellipse;whiteSpace=wrap;html=1;movable=1;resizable=1;rotatable=1;deletable=1;editable=1;locked=0;connectable=1;" parent="UwDjR_BW3tn6y8qIKl93-135" vertex="1">
          <mxGeometry x="300" width="100" height="40" as="geometry" />
        </mxCell>
        <mxCell id="UwDjR_BW3tn6y8qIKl93-108" value="查看个人信息" style="ellipse;whiteSpace=wrap;html=1;movable=1;resizable=1;rotatable=1;deletable=1;editable=1;locked=0;connectable=1;" parent="UwDjR_BW3tn6y8qIKl93-135" vertex="1">
          <mxGeometry x="300" y="50" width="100" height="40" as="geometry" />
        </mxCell>
        <mxCell id="UwDjR_BW3tn6y8qIKl93-109" value="修改个人信息" style="ellipse;whiteSpace=wrap;html=1;movable=1;resizable=1;rotatable=1;deletable=1;editable=1;locked=0;connectable=1;" parent="UwDjR_BW3tn6y8qIKl93-135" vertex="1">
          <mxGeometry x="300" y="104" width="100" height="40" as="geometry" />
        </mxCell>
        <mxCell id="UwDjR_BW3tn6y8qIKl93-110" value="修改密码" style="ellipse;whiteSpace=wrap;html=1;movable=1;resizable=1;rotatable=1;deletable=1;editable=1;locked=0;connectable=1;" parent="UwDjR_BW3tn6y8qIKl93-135" vertex="1">
          <mxGeometry x="300" y="150" width="100" height="40" as="geometry" />
        </mxCell>
        <mxCell id="UwDjR_BW3tn6y8qIKl93-111" value="搜索值班信息" style="ellipse;whiteSpace=wrap;html=1;movable=1;resizable=1;rotatable=1;deletable=1;editable=1;locked=0;connectable=1;" parent="UwDjR_BW3tn6y8qIKl93-135" vertex="1">
          <mxGeometry x="300" y="200" width="100" height="40" as="geometry" />
        </mxCell>
        <mxCell id="2G7LzGAWLY5ywAbXNIMu-12" value="前台" style="shape=umlActor;verticalLabelPosition=bottom;verticalAlign=top;html=1;movable=1;resizable=1;rotatable=1;deletable=1;editable=1;locked=0;connectable=1;" parent="UwDjR_BW3tn6y8qIKl93-135" vertex="1">
          <mxGeometry y="200" width="30" height="60" as="geometry" />
        </mxCell>
        <mxCell id="UwDjR_BW3tn6y8qIKl93-120" style="edgeStyle=none;rounded=0;orthogonalLoop=1;jettySize=auto;html=1;exitX=1;exitY=0.5;exitDx=0;exitDy=0;entryX=0;entryY=0.5;entryDx=0;entryDy=0;movable=1;resizable=1;rotatable=1;deletable=1;editable=1;locked=0;connectable=1;" parent="UwDjR_BW3tn6y8qIKl93-135" source="S12dJG0YQrAxgfUeFq4O-30" target="UwDjR_BW3tn6y8qIKl93-107" edge="1">
          <mxGeometry relative="1" as="geometry" />
        </mxCell>
        <mxCell id="S12dJG0YQrAxgfUeFq4O-30" value="员工个人信息管理" style="ellipse;whiteSpace=wrap;html=1;movable=1;resizable=1;rotatable=1;deletable=1;editable=1;locked=0;connectable=1;" parent="UwDjR_BW3tn6y8qIKl93-135" vertex="1">
          <mxGeometry x="100" y="20" width="100" height="40" as="geometry" />
        </mxCell>
        <mxCell id="S12dJG0YQrAxgfUeFq4O-80" style="edgeStyle=none;rounded=0;orthogonalLoop=1;jettySize=auto;html=1;exitX=0.5;exitY=0.5;exitDx=0;exitDy=0;exitPerimeter=0;entryX=0;entryY=0.5;entryDx=0;entryDy=0;movable=1;resizable=1;rotatable=1;deletable=1;editable=1;locked=0;connectable=1;" parent="UwDjR_BW3tn6y8qIKl93-135" source="2G7LzGAWLY5ywAbXNIMu-12" target="S12dJG0YQrAxgfUeFq4O-30" edge="1">
          <mxGeometry relative="1" as="geometry" />
        </mxCell>
        <mxCell id="UwDjR_BW3tn6y8qIKl93-121" style="edgeStyle=none;rounded=0;orthogonalLoop=1;jettySize=auto;html=1;exitX=1;exitY=0.5;exitDx=0;exitDy=0;entryX=0;entryY=0.5;entryDx=0;entryDy=0;movable=1;resizable=1;rotatable=1;deletable=1;editable=1;locked=0;connectable=1;" parent="UwDjR_BW3tn6y8qIKl93-135" source="S12dJG0YQrAxgfUeFq4O-31" target="UwDjR_BW3tn6y8qIKl93-108" edge="1">
          <mxGeometry relative="1" as="geometry" />
        </mxCell>
        <mxCell id="UwDjR_BW3tn6y8qIKl93-122" style="edgeStyle=none;rounded=0;orthogonalLoop=1;jettySize=auto;html=1;exitX=1;exitY=0.5;exitDx=0;exitDy=0;entryX=0;entryY=0.5;entryDx=0;entryDy=0;movable=1;resizable=1;rotatable=1;deletable=1;editable=1;locked=0;connectable=1;" parent="UwDjR_BW3tn6y8qIKl93-135" source="S12dJG0YQrAxgfUeFq4O-31" target="UwDjR_BW3tn6y8qIKl93-109" edge="1">
          <mxGeometry relative="1" as="geometry" />
        </mxCell>
        <mxCell id="UwDjR_BW3tn6y8qIKl93-123" style="edgeStyle=none;rounded=0;orthogonalLoop=1;jettySize=auto;html=1;exitX=1;exitY=0.5;exitDx=0;exitDy=0;entryX=0;entryY=0.5;entryDx=0;entryDy=0;movable=1;resizable=1;rotatable=1;deletable=1;editable=1;locked=0;connectable=1;" parent="UwDjR_BW3tn6y8qIKl93-135" source="S12dJG0YQrAxgfUeFq4O-31" target="UwDjR_BW3tn6y8qIKl93-110" edge="1">
          <mxGeometry relative="1" as="geometry" />
        </mxCell>
        <mxCell id="S12dJG0YQrAxgfUeFq4O-31" value="个人信息管理" style="ellipse;whiteSpace=wrap;html=1;movable=1;resizable=1;rotatable=1;deletable=1;editable=1;locked=0;connectable=1;" parent="UwDjR_BW3tn6y8qIKl93-135" vertex="1">
          <mxGeometry x="120" y="104" width="100" height="40" as="geometry" />
        </mxCell>
        <mxCell id="S12dJG0YQrAxgfUeFq4O-81" style="edgeStyle=none;rounded=0;orthogonalLoop=1;jettySize=auto;html=1;exitX=0.5;exitY=0.5;exitDx=0;exitDy=0;exitPerimeter=0;entryX=0;entryY=0.5;entryDx=0;entryDy=0;movable=1;resizable=1;rotatable=1;deletable=1;editable=1;locked=0;connectable=1;" parent="UwDjR_BW3tn6y8qIKl93-135" source="2G7LzGAWLY5ywAbXNIMu-12" target="S12dJG0YQrAxgfUeFq4O-31" edge="1">
          <mxGeometry relative="1" as="geometry" />
        </mxCell>
        <mxCell id="S12dJG0YQrAxgfUeFq4O-82" style="edgeStyle=none;rounded=0;orthogonalLoop=1;jettySize=auto;html=1;exitX=0.5;exitY=0.5;exitDx=0;exitDy=0;exitPerimeter=0;entryX=0;entryY=0.5;entryDx=0;entryDy=0;movable=1;resizable=1;rotatable=1;deletable=1;editable=1;locked=0;connectable=1;" parent="UwDjR_BW3tn6y8qIKl93-135" source="2G7LzGAWLY5ywAbXNIMu-12" target="S12dJG0YQrAxgfUeFq4O-117" edge="1">
          <mxGeometry relative="1" as="geometry">
            <mxPoint x="80" y="300" as="targetPoint" />
          </mxGeometry>
        </mxCell>
        <mxCell id="S12dJG0YQrAxgfUeFq4O-77" value="本日预约列表" style="ellipse;whiteSpace=wrap;html=1;movable=1;resizable=1;rotatable=1;deletable=1;editable=1;locked=0;connectable=1;" parent="UwDjR_BW3tn6y8qIKl93-135" vertex="1">
          <mxGeometry x="110" y="370" width="100" height="40" as="geometry" />
        </mxCell>
        <mxCell id="S12dJG0YQrAxgfUeFq4O-83" style="edgeStyle=none;rounded=0;orthogonalLoop=1;jettySize=auto;html=1;exitX=0.5;exitY=0.5;exitDx=0;exitDy=0;exitPerimeter=0;entryX=0;entryY=0.5;entryDx=0;entryDy=0;movable=1;resizable=1;rotatable=1;deletable=1;editable=1;locked=0;connectable=1;" parent="UwDjR_BW3tn6y8qIKl93-135" source="2G7LzGAWLY5ywAbXNIMu-12" target="S12dJG0YQrAxgfUeFq4O-77" edge="1">
          <mxGeometry relative="1" as="geometry" />
        </mxCell>
        <mxCell id="UwDjR_BW3tn6y8qIKl93-124" style="edgeStyle=none;rounded=0;orthogonalLoop=1;jettySize=auto;html=1;exitX=1;exitY=0.5;exitDx=0;exitDy=0;entryX=0;entryY=0.5;entryDx=0;entryDy=0;movable=1;resizable=1;rotatable=1;deletable=1;editable=1;locked=0;connectable=1;" parent="UwDjR_BW3tn6y8qIKl93-135" source="S12dJG0YQrAxgfUeFq4O-117" target="UwDjR_BW3tn6y8qIKl93-111" edge="1">
          <mxGeometry relative="1" as="geometry" />
        </mxCell>
        <mxCell id="S12dJG0YQrAxgfUeFq4O-117" value="值班信息管理" style="ellipse;whiteSpace=wrap;html=1;movable=1;resizable=1;rotatable=1;deletable=1;editable=1;locked=0;connectable=1;" parent="UwDjR_BW3tn6y8qIKl93-135" vertex="1">
          <mxGeometry x="110" y="270" width="100" height="40" as="geometry" />
        </mxCell>
        <mxCell id="S12dJG0YQrAxgfUeFq4O-118" value="查看值班信息" style="ellipse;whiteSpace=wrap;html=1;movable=1;resizable=1;rotatable=1;deletable=1;editable=1;locked=0;connectable=1;" parent="UwDjR_BW3tn6y8qIKl93-135" vertex="1">
          <mxGeometry x="310" y="250" width="100" height="40" as="geometry" />
        </mxCell>
        <mxCell id="S12dJG0YQrAxgfUeFq4O-116" style="edgeStyle=none;rounded=0;orthogonalLoop=1;jettySize=auto;html=1;exitX=1;exitY=0.5;exitDx=0;exitDy=0;entryX=0;entryY=0.5;entryDx=0;entryDy=0;movable=1;resizable=1;rotatable=1;deletable=1;editable=1;locked=0;connectable=1;" parent="UwDjR_BW3tn6y8qIKl93-135" source="S12dJG0YQrAxgfUeFq4O-117" target="S12dJG0YQrAxgfUeFq4O-118" edge="1">
          <mxGeometry relative="1" as="geometry" />
        </mxCell>
        <mxCell id="S12dJG0YQrAxgfUeFq4O-119" value="宠物房间管理" style="ellipse;whiteSpace=wrap;html=1;movable=1;resizable=1;rotatable=1;deletable=1;editable=1;locked=0;connectable=1;" parent="UwDjR_BW3tn6y8qIKl93-135" vertex="1">
          <mxGeometry x="100" y="540" width="100" height="40" as="geometry" />
        </mxCell>
        <mxCell id="S12dJG0YQrAxgfUeFq4O-120" style="edgeStyle=none;rounded=0;orthogonalLoop=1;jettySize=auto;html=1;exitX=0.5;exitY=0.5;exitDx=0;exitDy=0;exitPerimeter=0;entryX=0;entryY=0.5;entryDx=0;entryDy=0;movable=1;resizable=1;rotatable=1;deletable=1;editable=1;locked=0;connectable=1;" parent="UwDjR_BW3tn6y8qIKl93-135" source="2G7LzGAWLY5ywAbXNIMu-12" target="S12dJG0YQrAxgfUeFq4O-119" edge="1">
          <mxGeometry relative="1" as="geometry" />
        </mxCell>
        <mxCell id="UwDjR_BW3tn6y8qIKl93-112" value="搜索" style="ellipse;whiteSpace=wrap;html=1;movable=1;resizable=1;rotatable=1;deletable=1;editable=1;locked=0;connectable=1;" parent="UwDjR_BW3tn6y8qIKl93-135" vertex="1">
          <mxGeometry x="300" y="300" width="100" height="40" as="geometry" />
        </mxCell>
        <mxCell id="UwDjR_BW3tn6y8qIKl93-125" style="edgeStyle=none;rounded=0;orthogonalLoop=1;jettySize=auto;html=1;exitX=1;exitY=0.5;exitDx=0;exitDy=0;entryX=0;entryY=0.5;entryDx=0;entryDy=0;movable=1;resizable=1;rotatable=1;deletable=1;editable=1;locked=0;connectable=1;" parent="UwDjR_BW3tn6y8qIKl93-135" source="S12dJG0YQrAxgfUeFq4O-77" target="UwDjR_BW3tn6y8qIKl93-112" edge="1">
          <mxGeometry relative="1" as="geometry" />
        </mxCell>
        <mxCell id="UwDjR_BW3tn6y8qIKl93-113" value="查看" style="ellipse;whiteSpace=wrap;html=1;movable=1;resizable=1;rotatable=1;deletable=1;editable=1;locked=0;connectable=1;" parent="UwDjR_BW3tn6y8qIKl93-135" vertex="1">
          <mxGeometry x="300" y="350" width="100" height="40" as="geometry" />
        </mxCell>
        <mxCell id="UwDjR_BW3tn6y8qIKl93-126" style="edgeStyle=none;rounded=0;orthogonalLoop=1;jettySize=auto;html=1;exitX=1;exitY=0.5;exitDx=0;exitDy=0;entryX=0;entryY=0.5;entryDx=0;entryDy=0;movable=1;resizable=1;rotatable=1;deletable=1;editable=1;locked=0;connectable=1;" parent="UwDjR_BW3tn6y8qIKl93-135" source="S12dJG0YQrAxgfUeFq4O-77" target="UwDjR_BW3tn6y8qIKl93-113" edge="1">
          <mxGeometry relative="1" as="geometry" />
        </mxCell>
        <mxCell id="UwDjR_BW3tn6y8qIKl93-114" value="办理托管" style="ellipse;whiteSpace=wrap;html=1;movable=1;resizable=1;rotatable=1;deletable=1;editable=1;locked=0;connectable=1;" parent="UwDjR_BW3tn6y8qIKl93-135" vertex="1">
          <mxGeometry x="290" y="400" width="100" height="40" as="geometry" />
        </mxCell>
        <mxCell id="UwDjR_BW3tn6y8qIKl93-127" style="edgeStyle=none;rounded=0;orthogonalLoop=1;jettySize=auto;html=1;exitX=1;exitY=0.5;exitDx=0;exitDy=0;entryX=0;entryY=0.5;entryDx=0;entryDy=0;movable=1;resizable=1;rotatable=1;deletable=1;editable=1;locked=0;connectable=1;" parent="UwDjR_BW3tn6y8qIKl93-135" source="S12dJG0YQrAxgfUeFq4O-77" target="UwDjR_BW3tn6y8qIKl93-114" edge="1">
          <mxGeometry relative="1" as="geometry" />
        </mxCell>
        <mxCell id="UwDjR_BW3tn6y8qIKl93-115" value="发送提醒短信" style="ellipse;whiteSpace=wrap;html=1;movable=1;resizable=1;rotatable=1;deletable=1;editable=1;locked=0;connectable=1;" parent="UwDjR_BW3tn6y8qIKl93-135" vertex="1">
          <mxGeometry x="300" y="450" width="100" height="40" as="geometry" />
        </mxCell>
        <mxCell id="UwDjR_BW3tn6y8qIKl93-129" style="edgeStyle=none;rounded=0;orthogonalLoop=1;jettySize=auto;html=1;exitX=1;exitY=0.5;exitDx=0;exitDy=0;entryX=0;entryY=0.5;entryDx=0;entryDy=0;movable=1;resizable=1;rotatable=1;deletable=1;editable=1;locked=0;connectable=1;" parent="UwDjR_BW3tn6y8qIKl93-135" source="S12dJG0YQrAxgfUeFq4O-77" target="UwDjR_BW3tn6y8qIKl93-115" edge="1">
          <mxGeometry relative="1" as="geometry" />
        </mxCell>
        <mxCell id="UwDjR_BW3tn6y8qIKl93-116" value="搜索" style="ellipse;whiteSpace=wrap;html=1;movable=1;resizable=1;rotatable=1;deletable=1;editable=1;locked=0;connectable=1;" parent="UwDjR_BW3tn6y8qIKl93-135" vertex="1">
          <mxGeometry x="300" y="500" width="100" height="40" as="geometry" />
        </mxCell>
        <mxCell id="UwDjR_BW3tn6y8qIKl93-117" value="查看" style="ellipse;whiteSpace=wrap;html=1;movable=1;resizable=1;rotatable=1;deletable=1;editable=1;locked=0;connectable=1;" parent="UwDjR_BW3tn6y8qIKl93-135" vertex="1">
          <mxGeometry x="300" y="560" width="100" height="40" as="geometry" />
        </mxCell>
        <mxCell id="UwDjR_BW3tn6y8qIKl93-118" value="领回宠物" style="ellipse;whiteSpace=wrap;html=1;movable=1;resizable=1;rotatable=1;deletable=1;editable=1;locked=0;connectable=1;" parent="UwDjR_BW3tn6y8qIKl93-135" vertex="1">
          <mxGeometry x="300" y="610" width="100" height="40" as="geometry" />
        </mxCell>
        <mxCell id="UwDjR_BW3tn6y8qIKl93-130" style="edgeStyle=none;rounded=0;orthogonalLoop=1;jettySize=auto;html=1;exitX=1;exitY=0.5;exitDx=0;exitDy=0;entryX=0;entryY=0.5;entryDx=0;entryDy=0;movable=1;resizable=1;rotatable=1;deletable=1;editable=1;locked=0;connectable=1;" parent="UwDjR_BW3tn6y8qIKl93-135" source="S12dJG0YQrAxgfUeFq4O-119" target="UwDjR_BW3tn6y8qIKl93-116" edge="1">
          <mxGeometry relative="1" as="geometry" />
        </mxCell>
        <mxCell id="UwDjR_BW3tn6y8qIKl93-131" style="edgeStyle=none;rounded=0;orthogonalLoop=1;jettySize=auto;html=1;exitX=1;exitY=0.5;exitDx=0;exitDy=0;entryX=0;entryY=0.5;entryDx=0;entryDy=0;movable=1;resizable=1;rotatable=1;deletable=1;editable=1;locked=0;connectable=1;" parent="UwDjR_BW3tn6y8qIKl93-135" source="S12dJG0YQrAxgfUeFq4O-119" target="UwDjR_BW3tn6y8qIKl93-117" edge="1">
          <mxGeometry relative="1" as="geometry" />
        </mxCell>
        <mxCell id="UwDjR_BW3tn6y8qIKl93-133" style="edgeStyle=none;rounded=0;orthogonalLoop=1;jettySize=auto;html=1;exitX=1;exitY=0.5;exitDx=0;exitDy=0;entryX=0;entryY=0.5;entryDx=0;entryDy=0;movable=1;resizable=1;rotatable=1;deletable=1;editable=1;locked=0;connectable=1;" parent="UwDjR_BW3tn6y8qIKl93-135" source="S12dJG0YQrAxgfUeFq4O-119" target="UwDjR_BW3tn6y8qIKl93-118" edge="1">
          <mxGeometry relative="1" as="geometry" />
        </mxCell>
        <mxCell id="UwDjR_BW3tn6y8qIKl93-138" value="" style="group" parent="1" vertex="1" connectable="0">
          <mxGeometry x="901" y="2550" width="499" height="690" as="geometry" />
        </mxCell>
        <mxCell id="2G7LzGAWLY5ywAbXNIMu-10" value="医生" style="shape=umlActor;verticalLabelPosition=bottom;verticalAlign=top;html=1;" parent="UwDjR_BW3tn6y8qIKl93-138" vertex="1">
          <mxGeometry y="120" width="30" height="60" as="geometry" />
        </mxCell>
        <mxCell id="2G7LzGAWLY5ywAbXNIMu-16" value="员工个人信息管理" style="ellipse;whiteSpace=wrap;html=1;" parent="UwDjR_BW3tn6y8qIKl93-138" vertex="1">
          <mxGeometry x="149" y="50" width="100" height="40" as="geometry" />
        </mxCell>
        <mxCell id="2G7LzGAWLY5ywAbXNIMu-17" style="rounded=0;orthogonalLoop=1;jettySize=auto;html=1;" parent="UwDjR_BW3tn6y8qIKl93-138" source="2G7LzGAWLY5ywAbXNIMu-10" target="2G7LzGAWLY5ywAbXNIMu-16" edge="1">
          <mxGeometry relative="1" as="geometry" />
        </mxCell>
        <mxCell id="S12dJG0YQrAxgfUeFq4O-27" value="个人信息管理" style="ellipse;whiteSpace=wrap;html=1;" parent="UwDjR_BW3tn6y8qIKl93-138" vertex="1">
          <mxGeometry x="149" y="144" width="100" height="40" as="geometry" />
        </mxCell>
        <mxCell id="S12dJG0YQrAxgfUeFq4O-55" style="edgeStyle=none;rounded=0;orthogonalLoop=1;jettySize=auto;html=1;exitX=0.5;exitY=0.5;exitDx=0;exitDy=0;exitPerimeter=0;entryX=0;entryY=0.5;entryDx=0;entryDy=0;" parent="UwDjR_BW3tn6y8qIKl93-138" source="2G7LzGAWLY5ywAbXNIMu-10" target="S12dJG0YQrAxgfUeFq4O-27" edge="1">
          <mxGeometry relative="1" as="geometry" />
        </mxCell>
        <mxCell id="S12dJG0YQrAxgfUeFq4O-28" value="我的预约用户" style="ellipse;whiteSpace=wrap;html=1;" parent="UwDjR_BW3tn6y8qIKl93-138" vertex="1">
          <mxGeometry x="149" y="420" width="100" height="40" as="geometry" />
        </mxCell>
        <mxCell id="S12dJG0YQrAxgfUeFq4O-111" style="edgeStyle=none;rounded=0;orthogonalLoop=1;jettySize=auto;html=1;exitX=0.5;exitY=0.5;exitDx=0;exitDy=0;exitPerimeter=0;entryX=0;entryY=0.5;entryDx=0;entryDy=0;" parent="UwDjR_BW3tn6y8qIKl93-138" source="2G7LzGAWLY5ywAbXNIMu-10" target="S12dJG0YQrAxgfUeFq4O-28" edge="1">
          <mxGeometry relative="1" as="geometry" />
        </mxCell>
        <mxCell id="S12dJG0YQrAxgfUeFq4O-29" value="值班信息管理" style="ellipse;whiteSpace=wrap;html=1;" parent="UwDjR_BW3tn6y8qIKl93-138" vertex="1">
          <mxGeometry x="139" y="260" width="100" height="40" as="geometry" />
        </mxCell>
        <mxCell id="S12dJG0YQrAxgfUeFq4O-56" style="edgeStyle=none;rounded=0;orthogonalLoop=1;jettySize=auto;html=1;exitX=0.5;exitY=0.5;exitDx=0;exitDy=0;exitPerimeter=0;" parent="UwDjR_BW3tn6y8qIKl93-138" source="2G7LzGAWLY5ywAbXNIMu-10" target="S12dJG0YQrAxgfUeFq4O-29" edge="1">
          <mxGeometry relative="1" as="geometry" />
        </mxCell>
        <mxCell id="S12dJG0YQrAxgfUeFq4O-104" value="查看值班信息" style="ellipse;whiteSpace=wrap;html=1;" parent="UwDjR_BW3tn6y8qIKl93-138" vertex="1">
          <mxGeometry x="399" y="250" width="100" height="40" as="geometry" />
        </mxCell>
        <mxCell id="S12dJG0YQrAxgfUeFq4O-105" style="edgeStyle=none;rounded=0;orthogonalLoop=1;jettySize=auto;html=1;exitX=1;exitY=0.5;exitDx=0;exitDy=0;entryX=0;entryY=0.5;entryDx=0;entryDy=0;" parent="UwDjR_BW3tn6y8qIKl93-138" source="S12dJG0YQrAxgfUeFq4O-29" target="S12dJG0YQrAxgfUeFq4O-104" edge="1">
          <mxGeometry relative="1" as="geometry" />
        </mxCell>
        <mxCell id="UwDjR_BW3tn6y8qIKl93-22" value="查看员工个人信息" style="ellipse;whiteSpace=wrap;html=1;" parent="UwDjR_BW3tn6y8qIKl93-138" vertex="1">
          <mxGeometry x="389" width="100" height="40" as="geometry" />
        </mxCell>
        <mxCell id="UwDjR_BW3tn6y8qIKl93-24" style="edgeStyle=none;rounded=0;orthogonalLoop=1;jettySize=auto;html=1;exitX=1;exitY=0.5;exitDx=0;exitDy=0;entryX=0;entryY=0.5;entryDx=0;entryDy=0;" parent="UwDjR_BW3tn6y8qIKl93-138" source="2G7LzGAWLY5ywAbXNIMu-16" target="UwDjR_BW3tn6y8qIKl93-22" edge="1">
          <mxGeometry relative="1" as="geometry" />
        </mxCell>
        <mxCell id="UwDjR_BW3tn6y8qIKl93-85" value="查看个人信息" style="ellipse;whiteSpace=wrap;html=1;" parent="UwDjR_BW3tn6y8qIKl93-138" vertex="1">
          <mxGeometry x="399" y="50" width="100" height="40" as="geometry" />
        </mxCell>
        <mxCell id="UwDjR_BW3tn6y8qIKl93-96" style="edgeStyle=none;rounded=0;orthogonalLoop=1;jettySize=auto;html=1;exitX=1;exitY=0.5;exitDx=0;exitDy=0;entryX=0;entryY=0.5;entryDx=0;entryDy=0;" parent="UwDjR_BW3tn6y8qIKl93-138" source="S12dJG0YQrAxgfUeFq4O-27" target="UwDjR_BW3tn6y8qIKl93-85" edge="1">
          <mxGeometry relative="1" as="geometry" />
        </mxCell>
        <mxCell id="UwDjR_BW3tn6y8qIKl93-86" value="修改个人信息" style="ellipse;whiteSpace=wrap;html=1;" parent="UwDjR_BW3tn6y8qIKl93-138" vertex="1">
          <mxGeometry x="399" y="104" width="100" height="40" as="geometry" />
        </mxCell>
        <mxCell id="UwDjR_BW3tn6y8qIKl93-97" style="edgeStyle=none;rounded=0;orthogonalLoop=1;jettySize=auto;html=1;exitX=1;exitY=0.5;exitDx=0;exitDy=0;entryX=0;entryY=0.5;entryDx=0;entryDy=0;" parent="UwDjR_BW3tn6y8qIKl93-138" source="S12dJG0YQrAxgfUeFq4O-27" target="UwDjR_BW3tn6y8qIKl93-86" edge="1">
          <mxGeometry relative="1" as="geometry" />
        </mxCell>
        <mxCell id="UwDjR_BW3tn6y8qIKl93-87" value="修改密码" style="ellipse;whiteSpace=wrap;html=1;" parent="UwDjR_BW3tn6y8qIKl93-138" vertex="1">
          <mxGeometry x="399" y="150" width="100" height="40" as="geometry" />
        </mxCell>
        <mxCell id="UwDjR_BW3tn6y8qIKl93-98" style="edgeStyle=none;rounded=0;orthogonalLoop=1;jettySize=auto;html=1;exitX=1;exitY=0.5;exitDx=0;exitDy=0;entryX=0;entryY=0.5;entryDx=0;entryDy=0;" parent="UwDjR_BW3tn6y8qIKl93-138" source="S12dJG0YQrAxgfUeFq4O-27" target="UwDjR_BW3tn6y8qIKl93-87" edge="1">
          <mxGeometry relative="1" as="geometry" />
        </mxCell>
        <mxCell id="UwDjR_BW3tn6y8qIKl93-88" value="搜索值班信息" style="ellipse;whiteSpace=wrap;html=1;" parent="UwDjR_BW3tn6y8qIKl93-138" vertex="1">
          <mxGeometry x="399" y="200" width="100" height="40" as="geometry" />
        </mxCell>
        <mxCell id="UwDjR_BW3tn6y8qIKl93-99" style="edgeStyle=none;rounded=0;orthogonalLoop=1;jettySize=auto;html=1;exitX=1;exitY=0.5;exitDx=0;exitDy=0;entryX=0;entryY=0.5;entryDx=0;entryDy=0;" parent="UwDjR_BW3tn6y8qIKl93-138" source="S12dJG0YQrAxgfUeFq4O-29" target="UwDjR_BW3tn6y8qIKl93-88" edge="1">
          <mxGeometry relative="1" as="geometry" />
        </mxCell>
        <mxCell id="UwDjR_BW3tn6y8qIKl93-89" value="查看预约客户列表" style="ellipse;whiteSpace=wrap;html=1;" parent="UwDjR_BW3tn6y8qIKl93-138" vertex="1">
          <mxGeometry x="399" y="300" width="100" height="40" as="geometry" />
        </mxCell>
        <mxCell id="UwDjR_BW3tn6y8qIKl93-100" style="edgeStyle=none;rounded=0;orthogonalLoop=1;jettySize=auto;html=1;exitX=1;exitY=0.5;exitDx=0;exitDy=0;entryX=0;entryY=0.5;entryDx=0;entryDy=0;" parent="UwDjR_BW3tn6y8qIKl93-138" source="S12dJG0YQrAxgfUeFq4O-28" target="UwDjR_BW3tn6y8qIKl93-89" edge="1">
          <mxGeometry relative="1" as="geometry" />
        </mxCell>
        <mxCell id="UwDjR_BW3tn6y8qIKl93-90" value="修改病历" style="ellipse;whiteSpace=wrap;html=1;" parent="UwDjR_BW3tn6y8qIKl93-138" vertex="1">
          <mxGeometry x="399" y="550" width="100" height="40" as="geometry" />
        </mxCell>
        <mxCell id="UwDjR_BW3tn6y8qIKl93-105" style="edgeStyle=none;rounded=0;orthogonalLoop=1;jettySize=auto;html=1;exitX=1;exitY=0.5;exitDx=0;exitDy=0;entryX=0;entryY=0.5;entryDx=0;entryDy=0;" parent="UwDjR_BW3tn6y8qIKl93-138" source="S12dJG0YQrAxgfUeFq4O-28" target="UwDjR_BW3tn6y8qIKl93-90" edge="1">
          <mxGeometry relative="1" as="geometry" />
        </mxCell>
        <mxCell id="UwDjR_BW3tn6y8qIKl93-91" value="打印病历" style="ellipse;whiteSpace=wrap;html=1;" parent="UwDjR_BW3tn6y8qIKl93-138" vertex="1">
          <mxGeometry x="399" y="450" width="100" height="40" as="geometry" />
        </mxCell>
        <mxCell id="UwDjR_BW3tn6y8qIKl93-103" style="edgeStyle=none;rounded=0;orthogonalLoop=1;jettySize=auto;html=1;exitX=1;exitY=0.5;exitDx=0;exitDy=0;entryX=0;entryY=0.5;entryDx=0;entryDy=0;" parent="UwDjR_BW3tn6y8qIKl93-138" source="S12dJG0YQrAxgfUeFq4O-28" target="UwDjR_BW3tn6y8qIKl93-91" edge="1">
          <mxGeometry relative="1" as="geometry" />
        </mxCell>
        <mxCell id="UwDjR_BW3tn6y8qIKl93-92" value="发送提醒短信" style="ellipse;whiteSpace=wrap;html=1;" parent="UwDjR_BW3tn6y8qIKl93-138" vertex="1">
          <mxGeometry x="399" y="400" width="100" height="40" as="geometry" />
        </mxCell>
        <mxCell id="UwDjR_BW3tn6y8qIKl93-102" style="edgeStyle=none;rounded=0;orthogonalLoop=1;jettySize=auto;html=1;exitX=1;exitY=0.5;exitDx=0;exitDy=0;entryX=0;entryY=0.5;entryDx=0;entryDy=0;" parent="UwDjR_BW3tn6y8qIKl93-138" source="S12dJG0YQrAxgfUeFq4O-28" target="UwDjR_BW3tn6y8qIKl93-92" edge="1">
          <mxGeometry relative="1" as="geometry" />
        </mxCell>
        <mxCell id="UwDjR_BW3tn6y8qIKl93-93" value="诊断" style="ellipse;whiteSpace=wrap;html=1;" parent="UwDjR_BW3tn6y8qIKl93-138" vertex="1">
          <mxGeometry x="399" y="350" width="100" height="40" as="geometry" />
        </mxCell>
        <mxCell id="UwDjR_BW3tn6y8qIKl93-94" value="写病历" style="ellipse;whiteSpace=wrap;html=1;" parent="UwDjR_BW3tn6y8qIKl93-138" vertex="1">
          <mxGeometry x="399" y="500" width="100" height="40" as="geometry" />
        </mxCell>
        <mxCell id="UwDjR_BW3tn6y8qIKl93-95" value="开药" style="ellipse;whiteSpace=wrap;html=1;" parent="UwDjR_BW3tn6y8qIKl93-138" vertex="1">
          <mxGeometry x="389" y="600" width="100" height="40" as="geometry" />
        </mxCell>
        <mxCell id="UwDjR_BW3tn6y8qIKl93-101" style="edgeStyle=none;rounded=0;orthogonalLoop=1;jettySize=auto;html=1;exitX=1;exitY=0.5;exitDx=0;exitDy=0;entryX=0;entryY=0.5;entryDx=0;entryDy=0;" parent="UwDjR_BW3tn6y8qIKl93-138" source="S12dJG0YQrAxgfUeFq4O-28" target="UwDjR_BW3tn6y8qIKl93-93" edge="1">
          <mxGeometry relative="1" as="geometry" />
        </mxCell>
        <mxCell id="UwDjR_BW3tn6y8qIKl93-104" style="edgeStyle=none;rounded=0;orthogonalLoop=1;jettySize=auto;html=1;exitX=1;exitY=0.5;exitDx=0;exitDy=0;entryX=0;entryY=0.5;entryDx=0;entryDy=0;" parent="UwDjR_BW3tn6y8qIKl93-138" source="S12dJG0YQrAxgfUeFq4O-28" target="UwDjR_BW3tn6y8qIKl93-94" edge="1">
          <mxGeometry relative="1" as="geometry" />
        </mxCell>
        <mxCell id="UwDjR_BW3tn6y8qIKl93-106" style="edgeStyle=none;rounded=0;orthogonalLoop=1;jettySize=auto;html=1;exitX=1;exitY=0.5;exitDx=0;exitDy=0;entryX=0;entryY=0.5;entryDx=0;entryDy=0;" parent="UwDjR_BW3tn6y8qIKl93-138" source="S12dJG0YQrAxgfUeFq4O-28" target="UwDjR_BW3tn6y8qIKl93-95" edge="1">
          <mxGeometry relative="1" as="geometry" />
        </mxCell>
        <mxCell id="UwDjR_BW3tn6y8qIKl93-136" value="办理打疫苗" style="ellipse;whiteSpace=wrap;html=1;" parent="UwDjR_BW3tn6y8qIKl93-138" vertex="1">
          <mxGeometry x="389" y="650" width="100" height="40" as="geometry" />
        </mxCell>
        <mxCell id="UwDjR_BW3tn6y8qIKl93-137" style="edgeStyle=none;rounded=0;orthogonalLoop=1;jettySize=auto;html=1;exitX=1;exitY=0.5;exitDx=0;exitDy=0;entryX=0;entryY=0.5;entryDx=0;entryDy=0;" parent="UwDjR_BW3tn6y8qIKl93-138" source="S12dJG0YQrAxgfUeFq4O-28" target="UwDjR_BW3tn6y8qIKl93-136" edge="1">
          <mxGeometry relative="1" as="geometry" />
        </mxCell>
      </root>
    </mxGraphModel>
  </diagram>
</mxfile>
